 <svg 
    version="1.0" 
    xmlns="http://www.w3.org/2000/svg"  
    width="300.000000pt" 
    height="233.000000pt" 
    viewBox="0 0 300.000000 233.000000"  
    preserveAspectRatio="xMidYMid meet">  
<g 
    transform="translate(0.000000,233.000000) scale(0.100000,-0.100000)" 
    fill="#53d347" 
    stroke="none"> 
<path d="M1689 1890 c-9 -5 -24 -30 -33 -55 -18 -45 -18 -45 -54 -39 -21 4 -74 7 -118 7 -75 0 -89 -4 -167 -41 -145 -70 -226 -186 -235 -333 -6 -97 13 -198 39 -217 16 -11 18 -21 13 -65 -3 -29 -8 -55 -10 -59 -3 -4 -5 -37 -5 -73 -1 -68 11 -95 40 -94 24 1 136 74 134 87 -4 16 -3 15 54 -9 61 -26 176 -36 240 -20 65 17 141 55 184 94 57 51 125 156 116 178 -1 3 4 13 12 23 22 26 29 93 19 175 -6 52 -6 77 1 79 17 6 14 18 -20 87 -17 35 -27 70 -23 76 4 7 3 9 -3 6 -6 -4 -18 8 -27 26 -24 48 -98 148 -121 163 -13 8 -26 10 -36 4z m80 -92 c50 -69 141 -235 141 -259 0 -7 -8 -9 -22 -4 -74 23 -70 26 -88 -68 -26 -131 -148 -194 -261 -134 -48 26 -83 21 -94 -14 -5 -16 -9 -16 -48 7 -49 28 -105 31 -149 8 -16 -9 -27 -11 -23 -5 3 6 28 23 55 36 57 29 126 33 171 9 17 -8 33 -13 36 -10 8 8 -52 35 -95 42 -29 4 -52 1 -87 -15 -60 -27 -68 -22 -14 8 61 35 128 26 215 -27 61 -37 70 -40 85 -26 19 17 35 68 44 141 8 60 -3 71 -48 54 -14 -6 -28 -7 -31 -3 -2 4 12 41 33 82 20 41 53 114 72 162 19 49 39 88 44 88 6 0 34 -33 64 -72z m-199 -14 c23 -5 28 -9 18 -16 -8 -5 -3 -6 15 -2 32 7 34 -1 10 -51 -16 -33 -36 -45 -47 -26 -3 4 -37 9 -77 10 -51 1 -69 -1 -64 -10 5 -8 1 -9 -15 -4 -16 5 -20 4 -15 -5 5 -9 1 -10 -15 -5 -15 5 -20 4 -16 -4 4 -6 2 -9 -7 -6 -19 8 -120 -74 -113 -92 3 -8 1 -11 -4 -8 -6 4 -23 -20 -38 -52 -23 -49 -27 -72 -28 -148 -1 -89 -10 -151 -24 -160 -15 -9 -41 106 -40 177 2 108 4 136 11 133 3 -2 15 16 27 41 12 25 43 69 69 97 l47 52 -43 -40 c-23 -22 -56 -62 -72 -90 -31 -53 -40 -55 -13 -3 24 46 113 138 129 132 7 -3 16 0 21 7 4 8 3 10 -4 5 -7 -4 -12 -5 -12 -2 0 3 10 10 21 17 15 7 19 8 15 0 -5 -7 -1 -9 8 -5 9 3 14 10 11 14 -5 8 56 34 100 43 33 7 110 7 145 1z m-7 -120 c13 -5 12 -13 -9 -57 -13 -29 -24 -57 -24 -63 0 -14 42 -36 61 -32 21 4 24 -68 4 -115 -8 -20 -18 -37 -21 -37 -3 0 -29 15 -58 34 -66 42 -87 49 -148 47 -61 -1 -83 -12 -130 -64 -34 -38 -37 -40 -38 -19 0 16 4 21 13 16 9 -6 9 -4 -1 8 -16 20 1 96 34 149 31 49 98 105 148 123 42 15 142 21 169 10z m-233 -18 c0 -2 -8 -10 -17 -17 -16 -13 -17 -12 -4 4 13 16 21 21 21 13z m536 -129 c19 -11 21 -20 20 -127 -1 -104 -4 -120 -28 -170 -91 -186 -285 -270 -481 -210 -75 23 -86 34 -80 75 l5 31 59 -30 c50 -24 72 -29 132 -29 137 0 249 70 305 191 23 48 27 71 28 152 1 144 0 141 40 117z m41 -89 c-3 -8 -6 -5 -6 6 -1 11 2 17 5 13 3 -3 4 -12 1 -19z m-156 -116 c-40 -78 -102 -104 -197 -83 -56 13 -68 25 -34 34 14 3 20 14 20 32 0 17 4 24 11 19 50 -30 138 -21 186 20 16 14 29 23 31 21 2 -2 -6 -21 -17 -43z m46 16 c-3 -8 -6 -5 -6 6 -1 11 2 17 5 13 3 -3 4 -12 1 -19z m-424 -4 c18 -9 50 -31 72 -49 59 -47 83 -58 150 -65 58 -6 59 -7 24 -14 -51 -11 -109 8 -167 53 -104 82 -162 93 -217 38 -26 -26 -36 -48 -49 -107 -20 -92 -25 -191 -10 -197 6 -2 26 7 45 20 33 22 34 26 40 102 10 126 39 205 75 205 12 0 10 -7 -9 -30 -25 -29 -47 -104 -47 -159 0 -16 -3 -48 -6 -73 -6 -46 -16 -54 -126 -106 -24 -11 12 251 43 314 36 76 112 103 182 68z m147 -5 c0 -38 -42 -65 -54 -34 -3 8 -1 15 4 15 6 0 10 7 10 15 0 8 9 15 20 15 11 0 20 -5 20 -11z m-241 -53 c-10 -24 -23 -86 -29 -137 -7 -77 -13 -97 -31 -111 -40 -34 -46 -25 -37 63 11 98 41 182 75 209 39 30 44 25 22 -24z m507 22 c-3 -13 -6 -29 -6 -37 0 -8 -3 -11 -6 -8 -4 4 -16 -10 -27 -31 -48 -90 -132 -136 -247 -136 -76 0 -163 27 -182 57 -22 35 8 147 39 147 9 0 35 -16 59 -35 82 -67 171 -92 225 -62 60 32 100 65 116 95 20 37 38 43 29 10z"/> 
<path d="M1691 1803 c-8 -21 -35 -84 -62 -141 -45 -96 -46 -102 -25 -96 15 3 29 -1 40 -12 23 -23 14 -120 -18 -186 -18 -37 -20 -48 -9 -48 19 0 39 52 52 139 10 63 9 77 -4 97 -8 13 -22 24 -30 24 -8 0 -15 2 -15 4 0 5 91 210 95 214 4 5 61 -79 100 -149 31 -54 32 -59 14 -59 -32 0 -56 -34 -63 -89 -12 -90 -32 -127 -79 -147 -23 -9 -36 -19 -29 -21 21 -8 93 46 107 81 8 18 17 56 21 84 8 61 23 77 64 68 17 -3 30 -3 30 0 0 22 -156 274 -170 274 -3 0 -12 -17 -19 -37z"/> 
<path d="M1701 1521 c-6 -11 -14 -47 -18 -81 -5 -52 -4 -60 11 -60 26 0 60 85 49 123 -10 37 -28 45 -42 18z m16 -84 c-13 -40 -19 -28 -11 24 6 33 9 39 14 24 4 -11 3 -33 -3 -48z"/> 
<path d="M1495 1310 c3 -5 8 -10 11 -10 2 0 4 5 4 10 0 6 -5 10 -11 10 -5 0 -7 -4 -4 -10z"/> 
<path d="M1480 1290 c0 -5 5 -10 11 -10 5 0 7 5 4 10 -3 6 -8 10 -11 10 -2 0 -4 -4 -4 -10z"/> 
<path d="M1210 1161 c-12 -24 -13 -61 0 -81 14 -22 22 -6 28 50 5 52 -8 67 -28 31z"/> 
<path d="M740 868 c-59 -16 -70 -33 -70 -109 0 -63 2 -69 31 -93 35 -30 84 -34 129 -11 18 9 31 11 35 5 9 -15 57 -12 79 5 17 13 22 12 46 -5 31 -22 60 -26 60 -8 0 9 3 9 12 0 18 -18 49 -14 69 10 11 11 19 24 19 28 0 6 44 30 55 30 3 0 5 -11 5 -24 0 -42 29 -53 139 -51 101 2 131 11 131 42 0 10 11 4 29 -16 33 -35 39 -37 66 -17 17 12 25 12 54 0 44 -18 86 -18 116 2 21 14 26 14 47 0 44 -29 328 -15 328 16 0 4 7 8 15 8 8 0 15 -4 15 -9 0 -17 69 -33 110 -26 47 8 81 45 74 78 -3 12 -6 41 -7 65 -3 61 -34 84 -104 79 -30 -2 -60 -11 -70 -20 -17 -14 -20 -14 -43 3 -29 23 -138 28 -158 8 -7 -7 -12 -36 -12 -65 0 -59 -13 -73 -49 -53 -17 8 -21 20 -21 56 0 26 -6 52 -14 60 -17 17 -48 18 -63 3 -8 -8 -21 -8 -49 1 -49 17 -85 15 -122 -4 -26 -14 -31 -14 -42 -1 -22 27 -60 18 -73 -15 -12 -31 -27 -40 -27 -17 0 8 -8 21 -17 29 -15 13 -51 16 -202 17 -198 1 -211 -2 -211 -49 0 -43 -11 -42 -34 3 -19 37 -25 42 -56 42 -32 0 -37 -4 -60 -52 -27 -58 -43 -69 -34 -25 7 34 -11 57 -56 75 -25 10 -45 12 -70 5z m88 -40 c14 -14 16 -48 4 -48 -5 0 -17 7 -28 15 -23 17 -60 19 -70 4 -10 -16 15 -29 57 -29 57 0 78 -42 42 -82 -33 -37 -143 -16 -143 29 0 18 46 17 54 -2 7 -19 40 -20 55 -2 15 19 4 27 -40 27 -58 0 -83 35 -59 81 9 15 22 19 63 19 29 0 58 -5 65 -12z m169 -20 c6 -18 20 -57 32 -85 l21 -53 -25 0 c-16 0 -25 6 -25 15 0 11 -11 15 -40 15 -29 0 -40 -4 -40 -15 0 -9 -9 -15 -24 -15 l-24 0 32 85 c28 76 34 85 57 85 20 0 28 -7 36 -32z m220 17 c0 -11 -12 -15 -49 -15 -41 0 -48 -3 -48 -20 0 -16 7 -20 35 -20 29 0 35 -4 35 -21 0 -18 -5 -21 -35 -17 -34 4 -35 3 -35 -29 0 -29 -3 -33 -25 -33 -25 0 -25 1 -25 85 l0 85 73 0 c59 0 74 -3 74 -15z m163 0 c0 -11 -12 -15 -50 -15 -44 0 -50 -2 -50 -21 0 -19 4 -21 40 -16 35 4 40 2 40 -14 0 -16 -7 -19 -40 -19 -29 0 -40 -4 -40 -15 0 -11 12 -15 50 -15 43 0 50 -3 50 -20 0 -18 -7 -20 -70 -20 l-70 0 0 85 0 85 70 0 c56 0 70 -3 70 -15z m70 -20 c0 -34 1 -35 40 -35 39 0 40 1 40 35 0 28 4 35 20 35 18 0 20 -7 20 -85 0 -78 -2 -85 -20 -85 -16 0 -20 7 -20 35 0 34 -1 35 -40 35 -39 0 -40 -1 -40 -35 0 -28 -4 -35 -20 -35 -18 0 -20 7 -20 85 0 78 2 85 20 85 16 0 20 -7 20 -35z m304 13 c24 -33 20 -97 -6 -125 -28 -30 -95 -32 -126 -3 -27 25 -30 94 -6 128 12 18 25 22 69 22 44 0 57 -4 69 -22z m88 -43 l-4 -65 51 0 c44 0 51 -3 51 -20 0 -18 -7 -20 -70 -20 l-70 0 0 85 c0 82 1 85 23 85 22 0 23 -3 19 -65z m264 44 c13 -14 19 -36 19 -66 0 -61 -27 -83 -104 -83 l-56 0 0 85 0 85 61 0 c49 0 65 -4 80 -21z m182 9 c14 -14 16 -48 4 -48 -5 0 -17 7 -28 15 -29 22 -64 19 -64 -5 0 -17 7 -20 43 -20 48 0 67 -13 67 -46 0 -35 -26 -54 -76 -54 -43 0 -84 24 -84 50 0 16 42 11 55 -6 9 -12 20 -15 39 -10 41 10 26 30 -28 37 -63 7 -87 47 -50 83 19 19 104 22 122 4z"/> 
<path d="M947 760 c-4 -15 0 -20 13 -20 13 0 17 5 13 20 -3 11 -9 20 -13 20 -4 0 -10 -9 -13 -20z"/> 
<path d="M1652 798 c-28 -28 -4 -98 33 -98 22 0 45 30 45 59 0 32 -16 51 -45 51 -12 0 -26 -5 -33 -12z m41 -49 c-4 -13 -9 -17 -16 -10 -12 12 -1 45 12 37 5 -3 7 -15 4 -27z"/> 
<path d="M2010 756 l0 -53 33 6 c28 6 32 11 35 41 4 36 -16 60 -50 60 -15 0 -18 -9 -18 -54z"/> 
</g> 
</svg> 
    